<mxfile host="Electron" modified="2024-03-10T19:03:37.419Z" agent="Mozilla/5.0 (Windows NT 10.0; Win64; x64) AppleWebKit/537.36 (KHTML, like Gecko) draw.io/21.2.8 Chrome/112.0.5615.165 Electron/24.2.0 Safari/537.36" etag="CK5k7uKOBr3lv1OQFXi6" version="21.2.8" type="device">
  <diagram name="Page-1" id="DjB-2bIiSSQ9g5LSyULe">
    <mxGraphModel dx="1298" dy="770" grid="1" gridSize="10" guides="1" tooltips="1" connect="1" arrows="1" fold="1" page="1" pageScale="1" pageWidth="850" pageHeight="1100" math="0" shadow="0">
      <root>
        <mxCell id="0" />
        <mxCell id="1" parent="0" />
        <mxCell id="RwTbRoq6Shftqx2K060H-24" value="" style="group" vertex="1" connectable="0" parent="1">
          <mxGeometry x="60" y="170" width="940" height="590" as="geometry" />
        </mxCell>
        <mxCell id="RwTbRoq6Shftqx2K060H-25" value="" style="rounded=1;whiteSpace=wrap;html=1;fillColor=#e1d5e7;strokeColor=#9673a6;align=left;" vertex="1" parent="RwTbRoq6Shftqx2K060H-24">
          <mxGeometry width="670" height="440" as="geometry" />
        </mxCell>
        <mxCell id="RwTbRoq6Shftqx2K060H-26" value="Main Controller (FluidNC)" style="text;html=1;strokeColor=none;fillColor=none;align=center;verticalAlign=middle;whiteSpace=wrap;rounded=0;" vertex="1" parent="RwTbRoq6Shftqx2K060H-24">
          <mxGeometry x="40" y="20" width="130" height="40" as="geometry" />
        </mxCell>
        <mxCell id="RwTbRoq6Shftqx2K060H-27" style="edgeStyle=orthogonalEdgeStyle;rounded=0;orthogonalLoop=1;jettySize=auto;html=1;exitX=1;exitY=0.12;exitDx=0;exitDy=0;exitPerimeter=0;entryX=0.087;entryY=0.047;entryDx=0;entryDy=0;entryPerimeter=0;" edge="1" parent="RwTbRoq6Shftqx2K060H-24" source="RwTbRoq6Shftqx2K060H-35" target="RwTbRoq6Shftqx2K060H-36">
          <mxGeometry relative="1" as="geometry" />
        </mxCell>
        <mxCell id="RwTbRoq6Shftqx2K060H-28" value="I2S_BCLK" style="edgeLabel;html=1;align=center;verticalAlign=middle;resizable=0;points=[];" vertex="1" connectable="0" parent="RwTbRoq6Shftqx2K060H-27">
          <mxGeometry x="-0.2848" relative="1" as="geometry">
            <mxPoint as="offset" />
          </mxGeometry>
        </mxCell>
        <mxCell id="RwTbRoq6Shftqx2K060H-29" style="edgeStyle=orthogonalEdgeStyle;rounded=0;orthogonalLoop=1;jettySize=auto;html=1;exitX=1;exitY=0.25;exitDx=0;exitDy=0;exitPerimeter=0;entryX=0.012;entryY=0.164;entryDx=0;entryDy=0;entryPerimeter=0;" edge="1" parent="RwTbRoq6Shftqx2K060H-24" source="RwTbRoq6Shftqx2K060H-35" target="RwTbRoq6Shftqx2K060H-36">
          <mxGeometry relative="1" as="geometry" />
        </mxCell>
        <mxCell id="RwTbRoq6Shftqx2K060H-30" value="I2S_WS" style="edgeLabel;html=1;align=center;verticalAlign=middle;resizable=0;points=[];" vertex="1" connectable="0" parent="RwTbRoq6Shftqx2K060H-29">
          <mxGeometry x="-0.268" relative="1" as="geometry">
            <mxPoint as="offset" />
          </mxGeometry>
        </mxCell>
        <mxCell id="RwTbRoq6Shftqx2K060H-31" style="edgeStyle=orthogonalEdgeStyle;rounded=0;orthogonalLoop=1;jettySize=auto;html=1;exitX=1;exitY=0.38;exitDx=0;exitDy=0;exitPerimeter=0;entryX=0.031;entryY=0.297;entryDx=0;entryDy=0;entryPerimeter=0;" edge="1" parent="RwTbRoq6Shftqx2K060H-24" source="RwTbRoq6Shftqx2K060H-35" target="RwTbRoq6Shftqx2K060H-36">
          <mxGeometry relative="1" as="geometry" />
        </mxCell>
        <mxCell id="RwTbRoq6Shftqx2K060H-32" value="I2S_DATA" style="edgeLabel;html=1;align=center;verticalAlign=middle;resizable=0;points=[];" vertex="1" connectable="0" parent="RwTbRoq6Shftqx2K060H-31">
          <mxGeometry x="-0.4202" y="1" relative="1" as="geometry">
            <mxPoint as="offset" />
          </mxGeometry>
        </mxCell>
        <mxCell id="RwTbRoq6Shftqx2K060H-33" style="edgeStyle=orthogonalEdgeStyle;rounded=0;orthogonalLoop=1;jettySize=auto;html=1;exitX=1;exitY=0.5;exitDx=0;exitDy=0;exitPerimeter=0;entryX=0.021;entryY=0.425;entryDx=0;entryDy=0;entryPerimeter=0;" edge="1" parent="RwTbRoq6Shftqx2K060H-24" source="RwTbRoq6Shftqx2K060H-35" target="RwTbRoq6Shftqx2K060H-36">
          <mxGeometry relative="1" as="geometry" />
        </mxCell>
        <mxCell id="RwTbRoq6Shftqx2K060H-34" value="UART_PN" style="edgeLabel;html=1;align=center;verticalAlign=middle;resizable=0;points=[];" vertex="1" connectable="0" parent="RwTbRoq6Shftqx2K060H-33">
          <mxGeometry x="-0.3759" relative="1" as="geometry">
            <mxPoint as="offset" />
          </mxGeometry>
        </mxCell>
        <mxCell id="RwTbRoq6Shftqx2K060H-35" value="ESP32" style="rounded=1;whiteSpace=wrap;html=1;fillColor=#fff2cc;strokeColor=#d6b656;points=[[0,0,0,0,0],[0,0.25,0,0,0],[0,0.5,0,0,0],[0,0.75,0,0,0],[0,1,0,0,0],[0.25,0,0,0,0],[0.25,1,0,0,0],[0.5,0,0,0,0],[0.5,1,0,0,0],[0.75,0,0,0,0],[0.75,1,0,0,0],[1,0,0,0,0],[1,0.12,0,0,0],[1,0.25,0,0,0],[1,0.38,0,0,0],[1,0.5,0,0,0],[1,0.63,0,0,0],[1,0.75,0,0,0],[1,1,0,0,0]];" vertex="1" parent="RwTbRoq6Shftqx2K060H-24">
          <mxGeometry x="50" y="100" width="100" height="210" as="geometry" />
        </mxCell>
        <mxCell id="RwTbRoq6Shftqx2K060H-36" value="RS485 4/0 Driver" style="rounded=1;whiteSpace=wrap;html=1;fillColor=#d5e8d4;strokeColor=#82b366;points=[[0,0,0,0,0],[0,0.13,0,0,0],[0,0.25,0,0,0],[0,0.38,0,0,0],[0,0.5,0,0,0],[0,0.75,0,0,0],[0,1,0,0,0],[0.25,0,0,0,0],[0.25,1,0,0,0],[0.5,0,0,0,0],[0.5,1,0,0,0],[0.75,0,0,0,0],[0.75,1,0,0,0],[1,0,0,0,0],[1,0.25,0,0,0],[1,0.5,0,0,0],[1,0.75,0,0,0],[1,1,0,0,0]];" vertex="1" parent="RwTbRoq6Shftqx2K060H-24">
          <mxGeometry x="360" y="120" width="110" height="200" as="geometry" />
        </mxCell>
        <mxCell id="RwTbRoq6Shftqx2K060H-37" value="" style="verticalLabelPosition=bottom;shadow=0;dashed=0;align=center;html=1;verticalAlign=top;shape=mxgraph.electrical.transmission.2_line_bus;" vertex="1" parent="RwTbRoq6Shftqx2K060H-24">
          <mxGeometry x="460" y="180" width="130" height="25" as="geometry" />
        </mxCell>
        <mxCell id="RwTbRoq6Shftqx2K060H-38" value="" style="verticalLabelPosition=bottom;shadow=0;dashed=0;align=center;html=1;verticalAlign=top;shape=mxgraph.electrical.transmission.2_line_bus;" vertex="1" parent="RwTbRoq6Shftqx2K060H-24">
          <mxGeometry x="460" y="230" width="130" height="25" as="geometry" />
        </mxCell>
        <mxCell id="RwTbRoq6Shftqx2K060H-39" value="" style="verticalLabelPosition=bottom;shadow=0;dashed=0;align=center;html=1;verticalAlign=top;shape=mxgraph.electrical.transmission.2_line_bus;" vertex="1" parent="RwTbRoq6Shftqx2K060H-24">
          <mxGeometry x="460" y="270" width="130" height="25" as="geometry" />
        </mxCell>
        <mxCell id="RwTbRoq6Shftqx2K060H-40" value="" style="verticalLabelPosition=bottom;shadow=0;dashed=0;align=center;html=1;verticalAlign=top;shape=mxgraph.electrical.transmission.2_line_bus;" vertex="1" parent="RwTbRoq6Shftqx2K060H-24">
          <mxGeometry x="460" y="140" width="130" height="25" as="geometry" />
        </mxCell>
        <mxCell id="RwTbRoq6Shftqx2K060H-41" style="edgeStyle=orthogonalEdgeStyle;rounded=0;orthogonalLoop=1;jettySize=auto;html=1;exitX=0;exitY=0.5;exitDx=0;exitDy=0;exitPerimeter=0;" edge="1" parent="RwTbRoq6Shftqx2K060H-24" source="RwTbRoq6Shftqx2K060H-42">
          <mxGeometry relative="1" as="geometry">
            <mxPoint x="280" y="200" as="targetPoint" />
          </mxGeometry>
        </mxCell>
        <mxCell id="RwTbRoq6Shftqx2K060H-42" value="RS485 0/1 Driver" style="rounded=1;whiteSpace=wrap;html=1;fillColor=#d5e8d4;strokeColor=#82b366;points=[[0,0,0,0,0],[0,0.13,0,0,0],[0,0.25,0,0,0],[0,0.38,0,0,0],[0,0.5,0,0,0],[0,0.75,0,0,0],[0,1,0,0,0],[0.25,0,0,0,0],[0.25,1,0,0,0],[0.5,0,0,0,0],[0.5,1,0,0,0],[0.75,0,0,0,0],[0.75,1,0,0,0],[1,0,0,0,0],[1,0.25,0,0,0],[1,0.5,0,0,0],[1,0.75,0,0,0],[1,1,0,0,0]];" vertex="1" parent="RwTbRoq6Shftqx2K060H-24">
          <mxGeometry x="375" y="340" width="70" height="50" as="geometry" />
        </mxCell>
        <mxCell id="RwTbRoq6Shftqx2K060H-43" value="" style="verticalLabelPosition=bottom;shadow=0;dashed=0;align=center;html=1;verticalAlign=top;shape=mxgraph.electrical.transmission.2_line_bus;" vertex="1" parent="RwTbRoq6Shftqx2K060H-24">
          <mxGeometry x="440" y="352.5" width="130" height="25" as="geometry" />
        </mxCell>
        <mxCell id="RwTbRoq6Shftqx2K060H-44" value="" style="verticalLabelPosition=bottom;shadow=0;dashed=0;align=center;html=1;verticalAlign=top;shape=mxgraph.electrical.transmission.2_line_bus;rotation=-90;" vertex="1" parent="RwTbRoq6Shftqx2K060H-24">
          <mxGeometry x="490" y="310" width="110" height="25" as="geometry" />
        </mxCell>
        <mxCell id="RwTbRoq6Shftqx2K060H-45" value="RJ45" style="rounded=1;whiteSpace=wrap;html=1;fillColor=#dae8fc;strokeColor=#6c8ebf;points=[[0,0,0,0,0],[0,0.13,0,0,0],[0,0.25,0,0,0],[0,0.38,0,0,0],[0,0.5,0,0,0],[0,0.75,0,0,0],[0,1,0,0,0],[0.25,0,0,0,0],[0.25,1,0,0,0],[0.5,0,0,0,0],[0.5,1,0,0,0],[0.75,0,0,0,0],[0.75,1,0,0,0],[1,0,0,0,0],[1,0.25,0,0,0],[1,0.5,0,0,0],[1,0.75,0,0,0],[1,1,0,0,0]];" vertex="1" parent="RwTbRoq6Shftqx2K060H-24">
          <mxGeometry x="580" y="110" width="110" height="200" as="geometry" />
        </mxCell>
        <mxCell id="RwTbRoq6Shftqx2K060H-46" value="RJ45" style="rounded=1;whiteSpace=wrap;html=1;fillColor=#dae8fc;strokeColor=#6c8ebf;points=[[0,0,0,0,0],[0,0.13,0,0,0],[0,0.25,0,0,0],[0,0.38,0,0,0],[0,0.5,0,0,0],[0,0.75,0,0,0],[0,1,0,0,0],[0.25,0,0,0,0],[0.25,1,0,0,0],[0.5,0,0,0,0],[0.5,1,0,0,0],[0.75,0,0,0,0],[0.75,1,0,0,0],[1,0,0,0,0],[1,0.25,0,0,0],[1,0.5,0,0,0],[1,0.75,0,0,0],[1,1,0,0,0]];" vertex="1" parent="1">
          <mxGeometry x="1000" y="280" width="110" height="200" as="geometry" />
        </mxCell>
        <mxCell id="RwTbRoq6Shftqx2K060H-47" style="edgeStyle=orthogonalEdgeStyle;rounded=0;orthogonalLoop=1;jettySize=auto;html=1;exitX=1;exitY=0.5;exitDx=0;exitDy=0;exitPerimeter=0;entryX=0;entryY=0.5;entryDx=0;entryDy=0;entryPerimeter=0;" edge="1" parent="1" source="RwTbRoq6Shftqx2K060H-45" target="RwTbRoq6Shftqx2K060H-46">
          <mxGeometry relative="1" as="geometry" />
        </mxCell>
        <mxCell id="RwTbRoq6Shftqx2K060H-58" style="edgeStyle=orthogonalEdgeStyle;rounded=0;orthogonalLoop=1;jettySize=auto;html=1;exitX=1;exitY=0.25;exitDx=0;exitDy=0;exitPerimeter=0;entryX=0;entryY=0.25;entryDx=0;entryDy=0;entryPerimeter=0;" edge="1" parent="1" source="RwTbRoq6Shftqx2K060H-48" target="RwTbRoq6Shftqx2K060H-57">
          <mxGeometry relative="1" as="geometry" />
        </mxCell>
        <mxCell id="RwTbRoq6Shftqx2K060H-62" value="I2S_BCLK" style="edgeLabel;html=1;align=center;verticalAlign=middle;resizable=0;points=[];" vertex="1" connectable="0" parent="RwTbRoq6Shftqx2K060H-58">
          <mxGeometry x="-0.3711" y="-1" relative="1" as="geometry">
            <mxPoint as="offset" />
          </mxGeometry>
        </mxCell>
        <mxCell id="RwTbRoq6Shftqx2K060H-59" style="edgeStyle=orthogonalEdgeStyle;rounded=0;orthogonalLoop=1;jettySize=auto;html=1;exitX=1;exitY=0.5;exitDx=0;exitDy=0;exitPerimeter=0;entryX=0;entryY=0.5;entryDx=0;entryDy=0;entryPerimeter=0;" edge="1" parent="1" source="RwTbRoq6Shftqx2K060H-48" target="RwTbRoq6Shftqx2K060H-57">
          <mxGeometry relative="1" as="geometry" />
        </mxCell>
        <mxCell id="RwTbRoq6Shftqx2K060H-63" value="I2S_WS" style="edgeLabel;html=1;align=center;verticalAlign=middle;resizable=0;points=[];" vertex="1" connectable="0" parent="RwTbRoq6Shftqx2K060H-59">
          <mxGeometry x="-0.2658" relative="1" as="geometry">
            <mxPoint as="offset" />
          </mxGeometry>
        </mxCell>
        <mxCell id="RwTbRoq6Shftqx2K060H-60" style="edgeStyle=orthogonalEdgeStyle;rounded=0;orthogonalLoop=1;jettySize=auto;html=1;exitX=1;exitY=0.75;exitDx=0;exitDy=0;exitPerimeter=0;entryX=0;entryY=0.75;entryDx=0;entryDy=0;entryPerimeter=0;" edge="1" parent="1" source="RwTbRoq6Shftqx2K060H-48" target="RwTbRoq6Shftqx2K060H-57">
          <mxGeometry relative="1" as="geometry" />
        </mxCell>
        <mxCell id="RwTbRoq6Shftqx2K060H-64" value="I2S_DATA" style="edgeLabel;html=1;align=center;verticalAlign=middle;resizable=0;points=[];" vertex="1" connectable="0" parent="RwTbRoq6Shftqx2K060H-60">
          <mxGeometry x="-0.2868" y="-1" relative="1" as="geometry">
            <mxPoint as="offset" />
          </mxGeometry>
        </mxCell>
        <mxCell id="RwTbRoq6Shftqx2K060H-48" value="RS485 0/4 Driver" style="rounded=1;whiteSpace=wrap;html=1;fillColor=#d5e8d4;strokeColor=#82b366;points=[[0,0,0,0,0],[0,0.13,0,0,0],[0,0.25,0,0,0],[0,0.38,0,0,0],[0,0.5,0,0,0],[0,0.75,0,0,0],[0,1,0,0,0],[0.25,0,0,0,0],[0.25,1,0,0,0],[0.5,0,0,0,0],[0.5,1,0,0,0],[0.75,0,0,0,0],[0.75,1,0,0,0],[1,0,0,0,0],[1,0.25,0,0,0],[1,0.5,0,0,0],[1,0.75,0,0,0],[1,1,0,0,0]];" vertex="1" parent="1">
          <mxGeometry x="1200" y="280" width="110" height="200" as="geometry" />
        </mxCell>
        <mxCell id="RwTbRoq6Shftqx2K060H-49" value="" style="verticalLabelPosition=bottom;shadow=0;dashed=0;align=center;html=1;verticalAlign=top;shape=mxgraph.electrical.transmission.2_line_bus;" vertex="1" parent="1">
          <mxGeometry x="1090" y="350" width="130" height="25" as="geometry" />
        </mxCell>
        <mxCell id="RwTbRoq6Shftqx2K060H-50" value="" style="verticalLabelPosition=bottom;shadow=0;dashed=0;align=center;html=1;verticalAlign=top;shape=mxgraph.electrical.transmission.2_line_bus;" vertex="1" parent="1">
          <mxGeometry x="1090" y="400" width="130" height="25" as="geometry" />
        </mxCell>
        <mxCell id="RwTbRoq6Shftqx2K060H-51" value="" style="verticalLabelPosition=bottom;shadow=0;dashed=0;align=center;html=1;verticalAlign=top;shape=mxgraph.electrical.transmission.2_line_bus;" vertex="1" parent="1">
          <mxGeometry x="1090" y="452.5" width="130" height="25" as="geometry" />
        </mxCell>
        <mxCell id="RwTbRoq6Shftqx2K060H-52" value="" style="verticalLabelPosition=bottom;shadow=0;dashed=0;align=center;html=1;verticalAlign=top;shape=mxgraph.electrical.transmission.2_line_bus;" vertex="1" parent="1">
          <mxGeometry x="1090" y="310" width="130" height="25" as="geometry" />
        </mxCell>
        <mxCell id="RwTbRoq6Shftqx2K060H-66" style="edgeStyle=orthogonalEdgeStyle;rounded=0;orthogonalLoop=1;jettySize=auto;html=1;exitX=0.25;exitY=0;exitDx=0;exitDy=0;exitPerimeter=0;entryX=0.25;entryY=1;entryDx=0;entryDy=0;entryPerimeter=0;" edge="1" parent="1" source="RwTbRoq6Shftqx2K060H-57" target="RwTbRoq6Shftqx2K060H-65">
          <mxGeometry relative="1" as="geometry" />
        </mxCell>
        <mxCell id="RwTbRoq6Shftqx2K060H-69" value="STEP" style="edgeLabel;html=1;align=center;verticalAlign=middle;resizable=0;points=[];" vertex="1" connectable="0" parent="RwTbRoq6Shftqx2K060H-66">
          <mxGeometry x="0.306" y="1" relative="1" as="geometry">
            <mxPoint y="9" as="offset" />
          </mxGeometry>
        </mxCell>
        <mxCell id="RwTbRoq6Shftqx2K060H-67" style="edgeStyle=orthogonalEdgeStyle;rounded=0;orthogonalLoop=1;jettySize=auto;html=1;exitX=0.5;exitY=0;exitDx=0;exitDy=0;exitPerimeter=0;entryX=0.5;entryY=1;entryDx=0;entryDy=0;entryPerimeter=0;" edge="1" parent="1" source="RwTbRoq6Shftqx2K060H-57" target="RwTbRoq6Shftqx2K060H-65">
          <mxGeometry relative="1" as="geometry" />
        </mxCell>
        <mxCell id="RwTbRoq6Shftqx2K060H-70" value="DIR" style="edgeLabel;html=1;align=center;verticalAlign=middle;resizable=0;points=[];" vertex="1" connectable="0" parent="RwTbRoq6Shftqx2K060H-67">
          <mxGeometry x="-0.1385" y="1" relative="1" as="geometry">
            <mxPoint x="1" y="-4" as="offset" />
          </mxGeometry>
        </mxCell>
        <mxCell id="RwTbRoq6Shftqx2K060H-57" value="74_Shift Reg" style="rounded=1;whiteSpace=wrap;html=1;fillColor=#d5e8d4;strokeColor=#82b366;points=[[0,0,0,0,0],[0,0.13,0,0,0],[0,0.25,0,0,0],[0,0.38,0,0,0],[0,0.5,0,0,0],[0,0.75,0,0,0],[0,1,0,0,0],[0.25,0,0,0,0],[0.25,1,0,0,0],[0.5,0,0,0,0],[0.5,1,0,0,0],[0.75,0,0,0,0],[0.75,1,0,0,0],[1,0,0,0,0],[1,0.25,0,0,0],[1,0.5,0,0,0],[1,0.75,0,0,0],[1,1,0,0,0]];" vertex="1" parent="1">
          <mxGeometry x="1510" y="280" width="110" height="200" as="geometry" />
        </mxCell>
        <mxCell id="RwTbRoq6Shftqx2K060H-65" value="TMC2209" style="rounded=1;whiteSpace=wrap;html=1;fillColor=#fff2cc;strokeColor=#d6b656;points=[[0,0,0,0,0],[0,0.13,0,0,0],[0,0.25,0,0,0],[0,0.38,0,0,0],[0,0.5,0,0,0],[0,0.75,0,0,0],[0,1,0,0,0],[0.25,0,0,0,0],[0.25,1,0,0,0],[0.5,0,0,0,0],[0.5,1,0,0,0],[0.75,0,0,0,0],[0.75,1,0,0,0],[1,0,0,0,0],[1,0.25,0,0,0],[1,0.5,0,0,0],[1,0.75,0,0,0],[1,1,0,0,0]];" vertex="1" parent="1">
          <mxGeometry x="1510" y="120" width="110" height="100" as="geometry" />
        </mxCell>
        <mxCell id="RwTbRoq6Shftqx2K060H-74" style="edgeStyle=orthogonalEdgeStyle;rounded=0;orthogonalLoop=1;jettySize=auto;html=1;exitX=0;exitY=0.5;exitDx=0;exitDy=0;exitPerimeter=0;entryX=0.5;entryY=0;entryDx=0;entryDy=0;entryPerimeter=0;" edge="1" parent="1" source="RwTbRoq6Shftqx2K060H-73" target="RwTbRoq6Shftqx2K060H-46">
          <mxGeometry relative="1" as="geometry" />
        </mxCell>
        <mxCell id="RwTbRoq6Shftqx2K060H-75" style="edgeStyle=orthogonalEdgeStyle;rounded=0;orthogonalLoop=1;jettySize=auto;html=1;exitX=1;exitY=0.5;exitDx=0;exitDy=0;exitPerimeter=0;" edge="1" parent="1" source="RwTbRoq6Shftqx2K060H-73">
          <mxGeometry relative="1" as="geometry">
            <mxPoint x="1510" y="170" as="targetPoint" />
          </mxGeometry>
        </mxCell>
        <mxCell id="RwTbRoq6Shftqx2K060H-73" value="RS485 1/0 Driver" style="rounded=1;whiteSpace=wrap;html=1;fillColor=#d5e8d4;strokeColor=#82b366;points=[[0,0,0,0,0],[0,0.13,0,0,0],[0,0.25,0,0,0],[0,0.38,0,0,0],[0,0.5,0,0,0],[0,0.75,0,0,0],[0,1,0,0,0],[0.25,0,0,0,0],[0.25,1,0,0,0],[0.5,0,0,0,0],[0.5,1,0,0,0],[0.75,0,0,0,0],[0.75,1,0,0,0],[1,0,0,0,0],[1,0.25,0,0,0],[1,0.5,0,0,0],[1,0.75,0,0,0],[1,1,0,0,0]];" vertex="1" parent="1">
          <mxGeometry x="1220" y="150" width="70" height="50" as="geometry" />
        </mxCell>
        <mxCell id="RwTbRoq6Shftqx2K060H-71" style="edgeStyle=orthogonalEdgeStyle;rounded=0;orthogonalLoop=1;jettySize=auto;html=1;exitX=1;exitY=0;exitDx=0;exitDy=0;exitPerimeter=0;entryX=0;entryY=0.5;entryDx=0;entryDy=0;entryPerimeter=0;" edge="1" parent="1" source="RwTbRoq6Shftqx2K060H-48" target="RwTbRoq6Shftqx2K060H-65">
          <mxGeometry relative="1" as="geometry" />
        </mxCell>
        <mxCell id="RwTbRoq6Shftqx2K060H-72" value="UART_PDN" style="edgeLabel;html=1;align=center;verticalAlign=middle;resizable=0;points=[];" vertex="1" connectable="0" parent="RwTbRoq6Shftqx2K060H-71">
          <mxGeometry x="0.171" y="-2" relative="1" as="geometry">
            <mxPoint as="offset" />
          </mxGeometry>
        </mxCell>
        <mxCell id="RwTbRoq6Shftqx2K060H-76" value="RJ45" style="rounded=1;whiteSpace=wrap;html=1;fillColor=#dae8fc;strokeColor=#6c8ebf;points=[[0,0,0,0,0],[0,0.13,0,0,0],[0,0.25,0,0,0],[0,0.38,0,0,0],[0,0.5,0,0,0],[0,0.75,0,0,0],[0,1,0,0,0],[0.25,0,0,0,0],[0.25,1,0,0,0],[0.5,0,0,0,0],[0.5,1,0,0,0],[0.75,0,0,0,0],[0.75,1,0,0,0],[1,0,0,0,0],[1,0.25,0,0,0],[1,0.5,0,0,0],[1,0.75,0,0,0],[1,1,0,0,0]];" vertex="1" parent="1">
          <mxGeometry x="1200" y="500" width="110" height="200" as="geometry" />
        </mxCell>
      </root>
    </mxGraphModel>
  </diagram>
</mxfile>
